M48
;DRILL file {KiCad 5.0.2-bee76a0~70~ubuntu18.04.1} date Thu 05 Sep 2019 21:11:36 BST
;FORMAT={-:-/ absolute / inch / decimal}
FMAT,2
INCH,TZ
T1C0.0157
T2C0.0300
T3C0.0362
T4C0.0433
T5C0.0512
T6C0.0906
%
G90
G05
T1
X4.8Y-3.24
X5.28Y-3.25
X5.29Y-3.73
X5.36Y-3.73
X5.4Y-3.24
X5.45Y-3.73
X5.49Y-4.05
X5.55Y-4.24
X5.55Y-4.33
X5.55Y-4.43
X5.61Y-4.05
X5.77Y-4.05
X5.94Y-4.68
X5.96Y-4.38
T2
X4.835Y-4.58
X4.835Y-4.68
X4.835Y-4.78
X4.835Y-4.88
X4.835Y-4.98
X4.835Y-5.08
X5.635Y-4.58
X5.635Y-4.68
X5.635Y-4.78
X5.635Y-4.88
X5.635Y-4.98
X5.635Y-5.08
T3
X6.3344Y-3.605
X6.4328Y-3.605
X6.5116Y-3.605
X6.61Y-3.605
X5.6194Y-3.61
X5.7178Y-3.61
X5.7966Y-3.61
X5.895Y-3.61
T4
X6.36Y-3.795
X6.46Y-3.795
X6.56Y-3.795
X5.67Y-3.79
X5.77Y-3.79
X5.87Y-3.79
T5
X5.945Y-4.895
X5.945Y-5.0919
X6.4371Y-4.895
X6.4371Y-5.0919
T6
X6.2135Y-3.4983
X6.7309Y-3.4983
X5.4985Y-3.5033
X6.0159Y-3.5033
T0
M30
