%TF.GenerationSoftware,KiCad,Pcbnew,5.0.2-bee76a0~70~ubuntu18.04.1*%
%TF.CreationDate,2019-09-05T21:10:32+01:00*%
%TF.ProjectId,waterpump_alt,77617465-7270-4756-9d70-5f616c742e6b,rev?*%
%TF.SameCoordinates,Original*%
%TF.FileFunction,Soldermask,Bot*%
%TF.FilePolarity,Negative*%
%FSLAX46Y46*%
G04 Gerber Fmt 4.6, Leading zero omitted, Abs format (unit mm)*
G04 Created by KiCad (PCBNEW 5.0.2-bee76a0~70~ubuntu18.04.1) date Thu 05 Sep 2019 21:10:32 BST*
%MOMM*%
%LPD*%
G01*
G04 APERTURE LIST*
%ADD10C,0.150000*%
G04 APERTURE END LIST*
D10*
G36*
X164293329Y-128371122D02*
X164385318Y-128399027D01*
X164477307Y-128426931D01*
X164567935Y-128475373D01*
X164646860Y-128517559D01*
X164795475Y-128639525D01*
X164917441Y-128788140D01*
X164959627Y-128867065D01*
X165008069Y-128957693D01*
X165063878Y-129141672D01*
X165082722Y-129333000D01*
X165063878Y-129524328D01*
X165008069Y-129708307D01*
X164959627Y-129798935D01*
X164917441Y-129877860D01*
X164795475Y-130026475D01*
X164646860Y-130148441D01*
X164567935Y-130190627D01*
X164477307Y-130239069D01*
X164385318Y-130266973D01*
X164293329Y-130294878D01*
X164221636Y-130301939D01*
X164149945Y-130309000D01*
X162856055Y-130309000D01*
X162784364Y-130301939D01*
X162712671Y-130294878D01*
X162620683Y-130266974D01*
X162528693Y-130239069D01*
X162438065Y-130190627D01*
X162359140Y-130148441D01*
X162210525Y-130026475D01*
X162088559Y-129877860D01*
X162046373Y-129798935D01*
X161997931Y-129708307D01*
X161942122Y-129524328D01*
X161923278Y-129333000D01*
X161942122Y-129141672D01*
X161997931Y-128957693D01*
X162046373Y-128867065D01*
X162088559Y-128788140D01*
X162210525Y-128639525D01*
X162359140Y-128517559D01*
X162438065Y-128475373D01*
X162528693Y-128426931D01*
X162620682Y-128399027D01*
X162712671Y-128371122D01*
X162856055Y-128357000D01*
X164149945Y-128357000D01*
X164293329Y-128371122D01*
X164293329Y-128371122D01*
G37*
G36*
X151793329Y-128371122D02*
X151885318Y-128399027D01*
X151977307Y-128426931D01*
X152067935Y-128475373D01*
X152146860Y-128517559D01*
X152295475Y-128639525D01*
X152417441Y-128788140D01*
X152459627Y-128867065D01*
X152508069Y-128957693D01*
X152563878Y-129141672D01*
X152582722Y-129333000D01*
X152563878Y-129524328D01*
X152508069Y-129708307D01*
X152459627Y-129798935D01*
X152417441Y-129877860D01*
X152295475Y-130026475D01*
X152146860Y-130148441D01*
X152067935Y-130190627D01*
X151977307Y-130239069D01*
X151885318Y-130266973D01*
X151793329Y-130294878D01*
X151721636Y-130301939D01*
X151649945Y-130309000D01*
X150356055Y-130309000D01*
X150284364Y-130301939D01*
X150212671Y-130294878D01*
X150120683Y-130266974D01*
X150028693Y-130239069D01*
X149938065Y-130190627D01*
X149859140Y-130148441D01*
X149710525Y-130026475D01*
X149588559Y-129877860D01*
X149546373Y-129798935D01*
X149497931Y-129708307D01*
X149442122Y-129524328D01*
X149423278Y-129333000D01*
X149442122Y-129141672D01*
X149497931Y-128957693D01*
X149546373Y-128867065D01*
X149588559Y-128788140D01*
X149710525Y-128639525D01*
X149859140Y-128517559D01*
X149938065Y-128475373D01*
X150028693Y-128426931D01*
X150120682Y-128399027D01*
X150212671Y-128371122D01*
X150356055Y-128357000D01*
X151649945Y-128357000D01*
X151793329Y-128371122D01*
X151793329Y-128371122D01*
G37*
G36*
X143942000Y-129845000D02*
X142316000Y-129845000D01*
X142316000Y-128219000D01*
X143942000Y-128219000D01*
X143942000Y-129845000D01*
X143942000Y-129845000D01*
G37*
G36*
X123046142Y-128250242D02*
X123194102Y-128311530D01*
X123261130Y-128356317D01*
X123327257Y-128400501D01*
X123440499Y-128513743D01*
X123443049Y-128517560D01*
X123529470Y-128646898D01*
X123590758Y-128794858D01*
X123622000Y-128951925D01*
X123622000Y-129112075D01*
X123590758Y-129269142D01*
X123529470Y-129417102D01*
X123440498Y-129550258D01*
X123327258Y-129663498D01*
X123194102Y-129752470D01*
X123046142Y-129813758D01*
X122889075Y-129845000D01*
X122728925Y-129845000D01*
X122571858Y-129813758D01*
X122423898Y-129752470D01*
X122290742Y-129663498D01*
X122177502Y-129550258D01*
X122088530Y-129417102D01*
X122027242Y-129269142D01*
X121996000Y-129112075D01*
X121996000Y-128951925D01*
X122027242Y-128794858D01*
X122088530Y-128646898D01*
X122174951Y-128517560D01*
X122177501Y-128513743D01*
X122290743Y-128400501D01*
X122356870Y-128356317D01*
X122423898Y-128311530D01*
X122571858Y-128250242D01*
X122728925Y-128219000D01*
X122889075Y-128219000D01*
X123046142Y-128250242D01*
X123046142Y-128250242D01*
G37*
G36*
X123046142Y-125710242D02*
X123194102Y-125771530D01*
X123327258Y-125860502D01*
X123440498Y-125973742D01*
X123529470Y-126106898D01*
X123590758Y-126254858D01*
X123622000Y-126411925D01*
X123622000Y-126572075D01*
X123590758Y-126729142D01*
X123529470Y-126877102D01*
X123440498Y-127010258D01*
X123327258Y-127123498D01*
X123194102Y-127212470D01*
X123046142Y-127273758D01*
X122889075Y-127305000D01*
X122728925Y-127305000D01*
X122571858Y-127273758D01*
X122423898Y-127212470D01*
X122290742Y-127123498D01*
X122177502Y-127010258D01*
X122088530Y-126877102D01*
X122027242Y-126729142D01*
X121996000Y-126572075D01*
X121996000Y-126411925D01*
X122027242Y-126254858D01*
X122088530Y-126106898D01*
X122177502Y-125973742D01*
X122290742Y-125860502D01*
X122423898Y-125771530D01*
X122571858Y-125710242D01*
X122728925Y-125679000D01*
X122889075Y-125679000D01*
X123046142Y-125710242D01*
X123046142Y-125710242D01*
G37*
G36*
X143366142Y-125710242D02*
X143514102Y-125771530D01*
X143647258Y-125860502D01*
X143760498Y-125973742D01*
X143849470Y-126106898D01*
X143910758Y-126254858D01*
X143942000Y-126411925D01*
X143942000Y-126572075D01*
X143910758Y-126729142D01*
X143849470Y-126877102D01*
X143760498Y-127010258D01*
X143647258Y-127123498D01*
X143514102Y-127212470D01*
X143366142Y-127273758D01*
X143209075Y-127305000D01*
X143048925Y-127305000D01*
X142891858Y-127273758D01*
X142743898Y-127212470D01*
X142610742Y-127123498D01*
X142497502Y-127010258D01*
X142408530Y-126877102D01*
X142347242Y-126729142D01*
X142316000Y-126572075D01*
X142316000Y-126411925D01*
X142347242Y-126254858D01*
X142408530Y-126106898D01*
X142497502Y-125973742D01*
X142610742Y-125860502D01*
X142743898Y-125771530D01*
X142891858Y-125710242D01*
X143048925Y-125679000D01*
X143209075Y-125679000D01*
X143366142Y-125710242D01*
X143366142Y-125710242D01*
G37*
G36*
X164293329Y-123371122D02*
X164385318Y-123399027D01*
X164477307Y-123426931D01*
X164567935Y-123475373D01*
X164646860Y-123517559D01*
X164646862Y-123517560D01*
X164646861Y-123517560D01*
X164795475Y-123639525D01*
X164917440Y-123788139D01*
X165008069Y-123957693D01*
X165008069Y-123957694D01*
X165063878Y-124141671D01*
X165082722Y-124333000D01*
X165069204Y-124470257D01*
X165063878Y-124524328D01*
X165008069Y-124708307D01*
X164994465Y-124733758D01*
X164917441Y-124877860D01*
X164795475Y-125026475D01*
X164646860Y-125148441D01*
X164567935Y-125190627D01*
X164477307Y-125239069D01*
X164385318Y-125266973D01*
X164293329Y-125294878D01*
X164221636Y-125301939D01*
X164149945Y-125309000D01*
X162856055Y-125309000D01*
X162784364Y-125301939D01*
X162712671Y-125294878D01*
X162620682Y-125266973D01*
X162528693Y-125239069D01*
X162438065Y-125190627D01*
X162359140Y-125148441D01*
X162210525Y-125026475D01*
X162088559Y-124877860D01*
X162011535Y-124733758D01*
X161997931Y-124708307D01*
X161942122Y-124524328D01*
X161936797Y-124470257D01*
X161923278Y-124333000D01*
X161942122Y-124141671D01*
X161997931Y-123957694D01*
X161997931Y-123957693D01*
X162088560Y-123788139D01*
X162210525Y-123639525D01*
X162359139Y-123517560D01*
X162359138Y-123517560D01*
X162359140Y-123517559D01*
X162438065Y-123475373D01*
X162528693Y-123426931D01*
X162620682Y-123399027D01*
X162712671Y-123371122D01*
X162856055Y-123357000D01*
X164149945Y-123357000D01*
X164293329Y-123371122D01*
X164293329Y-123371122D01*
G37*
G36*
X151793329Y-123371122D02*
X151885318Y-123399027D01*
X151977307Y-123426931D01*
X152067935Y-123475373D01*
X152146860Y-123517559D01*
X152146862Y-123517560D01*
X152146861Y-123517560D01*
X152295475Y-123639525D01*
X152417440Y-123788139D01*
X152508069Y-123957693D01*
X152508069Y-123957694D01*
X152563878Y-124141671D01*
X152582722Y-124333000D01*
X152569204Y-124470257D01*
X152563878Y-124524328D01*
X152508069Y-124708307D01*
X152494465Y-124733758D01*
X152417441Y-124877860D01*
X152295475Y-125026475D01*
X152146860Y-125148441D01*
X152067935Y-125190627D01*
X151977307Y-125239069D01*
X151885318Y-125266973D01*
X151793329Y-125294878D01*
X151721636Y-125301939D01*
X151649945Y-125309000D01*
X150356055Y-125309000D01*
X150284364Y-125301939D01*
X150212671Y-125294878D01*
X150120682Y-125266973D01*
X150028693Y-125239069D01*
X149938065Y-125190627D01*
X149859140Y-125148441D01*
X149710525Y-125026475D01*
X149588559Y-124877860D01*
X149511535Y-124733758D01*
X149497931Y-124708307D01*
X149442122Y-124524328D01*
X149436797Y-124470257D01*
X149423278Y-124333000D01*
X149442122Y-124141671D01*
X149497931Y-123957694D01*
X149497931Y-123957693D01*
X149588560Y-123788139D01*
X149710525Y-123639525D01*
X149859139Y-123517560D01*
X149859138Y-123517560D01*
X149859140Y-123517559D01*
X149938065Y-123475373D01*
X150028693Y-123426931D01*
X150120682Y-123399027D01*
X150212671Y-123371122D01*
X150356055Y-123357000D01*
X151649945Y-123357000D01*
X151793329Y-123371122D01*
X151793329Y-123371122D01*
G37*
G36*
X143366142Y-123170242D02*
X143514102Y-123231530D01*
X143647258Y-123320502D01*
X143760498Y-123433742D01*
X143849470Y-123566898D01*
X143910758Y-123714858D01*
X143942000Y-123871925D01*
X143942000Y-124032075D01*
X143910758Y-124189142D01*
X143849470Y-124337102D01*
X143760498Y-124470258D01*
X143647258Y-124583498D01*
X143514102Y-124672470D01*
X143366142Y-124733758D01*
X143209075Y-124765000D01*
X143048925Y-124765000D01*
X142891858Y-124733758D01*
X142743898Y-124672470D01*
X142610742Y-124583498D01*
X142497502Y-124470258D01*
X142408530Y-124337102D01*
X142347242Y-124189142D01*
X142316000Y-124032075D01*
X142316000Y-123871925D01*
X142347242Y-123714858D01*
X142408530Y-123566898D01*
X142497502Y-123433742D01*
X142610742Y-123320502D01*
X142743898Y-123231530D01*
X142891858Y-123170242D01*
X143048925Y-123139000D01*
X143209075Y-123139000D01*
X143366142Y-123170242D01*
X143366142Y-123170242D01*
G37*
G36*
X123046142Y-123170242D02*
X123194102Y-123231530D01*
X123327258Y-123320502D01*
X123440498Y-123433742D01*
X123529470Y-123566898D01*
X123590758Y-123714858D01*
X123622000Y-123871925D01*
X123622000Y-124032075D01*
X123590758Y-124189142D01*
X123529470Y-124337102D01*
X123440498Y-124470258D01*
X123327258Y-124583498D01*
X123194102Y-124672470D01*
X123046142Y-124733758D01*
X122889075Y-124765000D01*
X122728925Y-124765000D01*
X122571858Y-124733758D01*
X122423898Y-124672470D01*
X122290742Y-124583498D01*
X122177502Y-124470258D01*
X122088530Y-124337102D01*
X122027242Y-124189142D01*
X121996000Y-124032075D01*
X121996000Y-123871925D01*
X122027242Y-123714858D01*
X122088530Y-123566898D01*
X122177502Y-123433742D01*
X122290742Y-123320502D01*
X122423898Y-123231530D01*
X122571858Y-123170242D01*
X122728925Y-123139000D01*
X122889075Y-123139000D01*
X123046142Y-123170242D01*
X123046142Y-123170242D01*
G37*
G36*
X123046142Y-120630242D02*
X123194102Y-120691530D01*
X123327258Y-120780502D01*
X123440498Y-120893742D01*
X123529470Y-121026898D01*
X123590758Y-121174858D01*
X123622000Y-121331925D01*
X123622000Y-121492075D01*
X123590758Y-121649142D01*
X123529470Y-121797102D01*
X123440498Y-121930258D01*
X123327258Y-122043498D01*
X123194102Y-122132470D01*
X123046142Y-122193758D01*
X122889075Y-122225000D01*
X122728925Y-122225000D01*
X122571858Y-122193758D01*
X122423898Y-122132470D01*
X122290742Y-122043498D01*
X122177502Y-121930258D01*
X122088530Y-121797102D01*
X122027242Y-121649142D01*
X121996000Y-121492075D01*
X121996000Y-121331925D01*
X122027242Y-121174858D01*
X122088530Y-121026898D01*
X122177502Y-120893742D01*
X122290742Y-120780502D01*
X122423898Y-120691530D01*
X122571858Y-120630242D01*
X122728925Y-120599000D01*
X122889075Y-120599000D01*
X123046142Y-120630242D01*
X123046142Y-120630242D01*
G37*
G36*
X143366142Y-120630242D02*
X143514102Y-120691530D01*
X143647258Y-120780502D01*
X143760498Y-120893742D01*
X143849470Y-121026898D01*
X143910758Y-121174858D01*
X143942000Y-121331925D01*
X143942000Y-121492075D01*
X143910758Y-121649142D01*
X143849470Y-121797102D01*
X143760498Y-121930258D01*
X143647258Y-122043498D01*
X143514102Y-122132470D01*
X143366142Y-122193758D01*
X143209075Y-122225000D01*
X143048925Y-122225000D01*
X142891858Y-122193758D01*
X142743898Y-122132470D01*
X142610742Y-122043498D01*
X142497502Y-121930258D01*
X142408530Y-121797102D01*
X142347242Y-121649142D01*
X142316000Y-121492075D01*
X142316000Y-121331925D01*
X142347242Y-121174858D01*
X142408530Y-121026898D01*
X142497502Y-120893742D01*
X142610742Y-120780502D01*
X142743898Y-120691530D01*
X142891858Y-120630242D01*
X143048925Y-120599000D01*
X143209075Y-120599000D01*
X143366142Y-120630242D01*
X143366142Y-120630242D01*
G37*
G36*
X143366142Y-118090242D02*
X143514102Y-118151530D01*
X143647258Y-118240502D01*
X143760498Y-118353742D01*
X143849470Y-118486898D01*
X143910758Y-118634858D01*
X143942000Y-118791925D01*
X143942000Y-118952075D01*
X143910758Y-119109142D01*
X143849470Y-119257102D01*
X143760498Y-119390258D01*
X143647258Y-119503498D01*
X143514102Y-119592470D01*
X143366142Y-119653758D01*
X143209075Y-119685000D01*
X143048925Y-119685000D01*
X142891858Y-119653758D01*
X142743898Y-119592470D01*
X142610742Y-119503498D01*
X142497502Y-119390258D01*
X142408530Y-119257102D01*
X142347242Y-119109142D01*
X142316000Y-118952075D01*
X142316000Y-118791925D01*
X142347242Y-118634858D01*
X142408530Y-118486898D01*
X142497502Y-118353742D01*
X142610742Y-118240502D01*
X142743898Y-118151530D01*
X142891858Y-118090242D01*
X143048925Y-118059000D01*
X143209075Y-118059000D01*
X143366142Y-118090242D01*
X143366142Y-118090242D01*
G37*
G36*
X123046142Y-118090242D02*
X123194102Y-118151530D01*
X123327258Y-118240502D01*
X123440498Y-118353742D01*
X123529470Y-118486898D01*
X123590758Y-118634858D01*
X123622000Y-118791925D01*
X123622000Y-118952075D01*
X123590758Y-119109142D01*
X123529470Y-119257102D01*
X123440498Y-119390258D01*
X123327258Y-119503498D01*
X123194102Y-119592470D01*
X123046142Y-119653758D01*
X122889075Y-119685000D01*
X122728925Y-119685000D01*
X122571858Y-119653758D01*
X122423898Y-119592470D01*
X122290742Y-119503498D01*
X122177502Y-119390258D01*
X122088530Y-119257102D01*
X122027242Y-119109142D01*
X121996000Y-118952075D01*
X121996000Y-118791925D01*
X122027242Y-118634858D01*
X122088530Y-118486898D01*
X122177502Y-118353742D01*
X122290742Y-118240502D01*
X122423898Y-118151530D01*
X122571858Y-118090242D01*
X122728925Y-118059000D01*
X122889075Y-118059000D01*
X123046142Y-118090242D01*
X123046142Y-118090242D01*
G37*
G36*
X123046142Y-115550242D02*
X123194102Y-115611530D01*
X123327258Y-115700502D01*
X123440498Y-115813742D01*
X123529470Y-115946898D01*
X123590758Y-116094858D01*
X123622000Y-116251925D01*
X123622000Y-116412075D01*
X123590758Y-116569142D01*
X123529470Y-116717102D01*
X123440498Y-116850258D01*
X123327258Y-116963498D01*
X123194102Y-117052470D01*
X123046142Y-117113758D01*
X122889075Y-117145000D01*
X122728925Y-117145000D01*
X122571858Y-117113758D01*
X122423898Y-117052470D01*
X122290742Y-116963498D01*
X122177502Y-116850258D01*
X122088530Y-116717102D01*
X122027242Y-116569142D01*
X121996000Y-116412075D01*
X121996000Y-116251925D01*
X122027242Y-116094858D01*
X122088530Y-115946898D01*
X122177502Y-115813742D01*
X122290742Y-115700502D01*
X122423898Y-115611530D01*
X122571858Y-115550242D01*
X122728925Y-115519000D01*
X122889075Y-115519000D01*
X123046142Y-115550242D01*
X123046142Y-115550242D01*
G37*
G36*
X143366142Y-115550242D02*
X143514102Y-115611530D01*
X143647258Y-115700502D01*
X143760498Y-115813742D01*
X143849470Y-115946898D01*
X143910758Y-116094858D01*
X143942000Y-116251925D01*
X143942000Y-116412075D01*
X143910758Y-116569142D01*
X143849470Y-116717102D01*
X143760498Y-116850258D01*
X143647258Y-116963498D01*
X143514102Y-117052470D01*
X143366142Y-117113758D01*
X143209075Y-117145000D01*
X143048925Y-117145000D01*
X142891858Y-117113758D01*
X142743898Y-117052470D01*
X142610742Y-116963498D01*
X142497502Y-116850258D01*
X142408530Y-116717102D01*
X142347242Y-116569142D01*
X142316000Y-116412075D01*
X142316000Y-116251925D01*
X142347242Y-116094858D01*
X142408530Y-115946898D01*
X142497502Y-115813742D01*
X142610742Y-115700502D01*
X142743898Y-115611530D01*
X142891858Y-115550242D01*
X143048925Y-115519000D01*
X143209075Y-115519000D01*
X143366142Y-115550242D01*
X143366142Y-115550242D01*
G37*
G36*
X161740720Y-95356520D02*
X161929881Y-95413901D01*
X162104212Y-95507083D01*
X162257015Y-95632485D01*
X162382417Y-95785288D01*
X162475599Y-95959620D01*
X162532980Y-96148781D01*
X162547500Y-96296207D01*
X162547500Y-96489794D01*
X162532980Y-96637220D01*
X162475599Y-96826381D01*
X162382417Y-97000712D01*
X162257015Y-97153515D01*
X162104212Y-97278917D01*
X161929880Y-97372099D01*
X161740719Y-97429480D01*
X161544000Y-97448855D01*
X161347280Y-97429480D01*
X161158119Y-97372099D01*
X160983788Y-97278917D01*
X160830985Y-97153515D01*
X160705583Y-97000712D01*
X160612401Y-96826380D01*
X160555020Y-96637219D01*
X160542512Y-96510219D01*
X160540500Y-96489795D01*
X160540500Y-96296204D01*
X160553008Y-96169206D01*
X160555020Y-96148780D01*
X160612401Y-95959619D01*
X160705583Y-95785288D01*
X160830985Y-95632485D01*
X160983788Y-95507083D01*
X161158120Y-95413901D01*
X161347281Y-95356520D01*
X161544000Y-95337145D01*
X161740720Y-95356520D01*
X161740720Y-95356520D01*
G37*
G36*
X164280720Y-95356520D02*
X164469881Y-95413901D01*
X164644212Y-95507083D01*
X164797015Y-95632485D01*
X164922417Y-95785288D01*
X165015599Y-95959620D01*
X165072980Y-96148781D01*
X165087500Y-96296207D01*
X165087500Y-96489794D01*
X165072980Y-96637220D01*
X165015599Y-96826381D01*
X164922417Y-97000712D01*
X164797015Y-97153515D01*
X164644212Y-97278917D01*
X164469880Y-97372099D01*
X164280719Y-97429480D01*
X164084000Y-97448855D01*
X163887280Y-97429480D01*
X163698119Y-97372099D01*
X163523788Y-97278917D01*
X163370985Y-97153515D01*
X163245583Y-97000712D01*
X163152401Y-96826380D01*
X163095020Y-96637219D01*
X163082512Y-96510219D01*
X163080500Y-96489795D01*
X163080500Y-96296204D01*
X163093008Y-96169206D01*
X163095020Y-96148780D01*
X163152401Y-95959619D01*
X163245583Y-95785288D01*
X163370985Y-95632485D01*
X163523788Y-95507083D01*
X163698120Y-95413901D01*
X163887281Y-95356520D01*
X164084000Y-95337145D01*
X164280720Y-95356520D01*
X164280720Y-95356520D01*
G37*
G36*
X167627500Y-97444000D02*
X165620500Y-97444000D01*
X165620500Y-95342000D01*
X167627500Y-95342000D01*
X167627500Y-97444000D01*
X167627500Y-97444000D01*
G37*
G36*
X146754720Y-95229520D02*
X146943881Y-95286901D01*
X147118212Y-95380083D01*
X147271015Y-95505485D01*
X147396417Y-95658288D01*
X147489599Y-95832620D01*
X147546980Y-96021781D01*
X147546980Y-96021784D01*
X147559489Y-96148783D01*
X147561500Y-96169207D01*
X147561500Y-96362794D01*
X147546980Y-96510220D01*
X147489599Y-96699381D01*
X147396417Y-96873712D01*
X147271015Y-97026515D01*
X147118212Y-97151917D01*
X146943880Y-97245099D01*
X146754719Y-97302480D01*
X146558000Y-97321855D01*
X146361280Y-97302480D01*
X146172119Y-97245099D01*
X145997788Y-97151917D01*
X145844985Y-97026515D01*
X145719583Y-96873712D01*
X145626401Y-96699380D01*
X145569020Y-96510219D01*
X145554500Y-96362793D01*
X145554500Y-96169206D01*
X145569020Y-96021780D01*
X145626401Y-95832619D01*
X145719583Y-95658288D01*
X145844985Y-95505485D01*
X145997788Y-95380083D01*
X146172120Y-95286901D01*
X146361281Y-95229520D01*
X146558000Y-95210145D01*
X146754720Y-95229520D01*
X146754720Y-95229520D01*
G37*
G36*
X144214720Y-95229520D02*
X144403881Y-95286901D01*
X144578212Y-95380083D01*
X144731015Y-95505485D01*
X144856417Y-95658288D01*
X144949599Y-95832620D01*
X145006980Y-96021781D01*
X145006980Y-96021784D01*
X145019489Y-96148783D01*
X145021500Y-96169207D01*
X145021500Y-96362794D01*
X145006980Y-96510220D01*
X144949599Y-96699381D01*
X144856417Y-96873712D01*
X144731015Y-97026515D01*
X144578212Y-97151917D01*
X144403880Y-97245099D01*
X144214719Y-97302480D01*
X144018000Y-97321855D01*
X143821280Y-97302480D01*
X143632119Y-97245099D01*
X143457788Y-97151917D01*
X143304985Y-97026515D01*
X143179583Y-96873712D01*
X143086401Y-96699380D01*
X143029020Y-96510219D01*
X143014500Y-96362793D01*
X143014500Y-96169206D01*
X143029020Y-96021780D01*
X143086401Y-95832619D01*
X143179583Y-95658288D01*
X143304985Y-95505485D01*
X143457788Y-95380083D01*
X143632120Y-95286901D01*
X143821281Y-95229520D01*
X144018000Y-95210145D01*
X144214720Y-95229520D01*
X144214720Y-95229520D01*
G37*
G36*
X150101500Y-97317000D02*
X148094500Y-97317000D01*
X148094500Y-95215000D01*
X150101500Y-95215000D01*
X150101500Y-97317000D01*
X150101500Y-97317000D01*
G37*
G36*
X150584000Y-92545000D02*
X148882000Y-92545000D01*
X148882000Y-90843000D01*
X150584000Y-90843000D01*
X150584000Y-92545000D01*
X150584000Y-92545000D01*
G37*
G36*
X147481228Y-90875703D02*
X147636100Y-90939853D01*
X147775481Y-91032985D01*
X147894015Y-91151519D01*
X147987147Y-91290900D01*
X148051297Y-91445772D01*
X148084000Y-91610184D01*
X148084000Y-91777816D01*
X148051297Y-91942228D01*
X147987147Y-92097100D01*
X147894015Y-92236481D01*
X147775481Y-92355015D01*
X147636100Y-92448147D01*
X147481228Y-92512297D01*
X147316816Y-92545000D01*
X147149184Y-92545000D01*
X146984772Y-92512297D01*
X146829900Y-92448147D01*
X146690519Y-92355015D01*
X146571985Y-92236481D01*
X146478853Y-92097100D01*
X146414703Y-91942228D01*
X146382000Y-91777816D01*
X146382000Y-91610184D01*
X146414703Y-91445772D01*
X146478853Y-91290900D01*
X146571985Y-91151519D01*
X146690519Y-91032985D01*
X146829900Y-90939853D01*
X146984772Y-90875703D01*
X147149184Y-90843000D01*
X147316816Y-90843000D01*
X147481228Y-90875703D01*
X147481228Y-90875703D01*
G37*
G36*
X145481228Y-90875703D02*
X145636100Y-90939853D01*
X145775481Y-91032985D01*
X145894015Y-91151519D01*
X145987147Y-91290900D01*
X146051297Y-91445772D01*
X146084000Y-91610184D01*
X146084000Y-91777816D01*
X146051297Y-91942228D01*
X145987147Y-92097100D01*
X145894015Y-92236481D01*
X145775481Y-92355015D01*
X145636100Y-92448147D01*
X145481228Y-92512297D01*
X145316816Y-92545000D01*
X145149184Y-92545000D01*
X144984772Y-92512297D01*
X144829900Y-92448147D01*
X144690519Y-92355015D01*
X144571985Y-92236481D01*
X144478853Y-92097100D01*
X144414703Y-91942228D01*
X144382000Y-91777816D01*
X144382000Y-91610184D01*
X144414703Y-91445772D01*
X144478853Y-91290900D01*
X144571985Y-91151519D01*
X144690519Y-91032985D01*
X144829900Y-90939853D01*
X144984772Y-90875703D01*
X145149184Y-90843000D01*
X145316816Y-90843000D01*
X145481228Y-90875703D01*
X145481228Y-90875703D01*
G37*
G36*
X142981228Y-90875703D02*
X143136100Y-90939853D01*
X143275481Y-91032985D01*
X143394015Y-91151519D01*
X143487147Y-91290900D01*
X143551297Y-91445772D01*
X143584000Y-91610184D01*
X143584000Y-91777816D01*
X143551297Y-91942228D01*
X143487147Y-92097100D01*
X143394015Y-92236481D01*
X143275481Y-92355015D01*
X143136100Y-92448147D01*
X142981228Y-92512297D01*
X142816816Y-92545000D01*
X142649184Y-92545000D01*
X142484772Y-92512297D01*
X142329900Y-92448147D01*
X142190519Y-92355015D01*
X142071985Y-92236481D01*
X141978853Y-92097100D01*
X141914703Y-91942228D01*
X141882000Y-91777816D01*
X141882000Y-91610184D01*
X141914703Y-91445772D01*
X141978853Y-91290900D01*
X142071985Y-91151519D01*
X142190519Y-91032985D01*
X142329900Y-90939853D01*
X142484772Y-90875703D01*
X142649184Y-90843000D01*
X142816816Y-90843000D01*
X142981228Y-90875703D01*
X142981228Y-90875703D01*
G37*
G36*
X168745000Y-92418000D02*
X167043000Y-92418000D01*
X167043000Y-90716000D01*
X168745000Y-90716000D01*
X168745000Y-92418000D01*
X168745000Y-92418000D01*
G37*
G36*
X163642228Y-90748703D02*
X163797100Y-90812853D01*
X163936481Y-90905985D01*
X164055015Y-91024519D01*
X164148147Y-91163900D01*
X164212297Y-91318772D01*
X164245000Y-91483184D01*
X164245000Y-91650816D01*
X164212297Y-91815228D01*
X164148147Y-91970100D01*
X164055015Y-92109481D01*
X163936481Y-92228015D01*
X163797100Y-92321147D01*
X163642228Y-92385297D01*
X163477816Y-92418000D01*
X163310184Y-92418000D01*
X163145772Y-92385297D01*
X162990900Y-92321147D01*
X162851519Y-92228015D01*
X162732985Y-92109481D01*
X162639853Y-91970100D01*
X162575703Y-91815228D01*
X162543000Y-91650816D01*
X162543000Y-91483184D01*
X162575703Y-91318772D01*
X162639853Y-91163900D01*
X162732985Y-91024519D01*
X162851519Y-90905985D01*
X162990900Y-90812853D01*
X163145772Y-90748703D01*
X163310184Y-90716000D01*
X163477816Y-90716000D01*
X163642228Y-90748703D01*
X163642228Y-90748703D01*
G37*
G36*
X165642228Y-90748703D02*
X165797100Y-90812853D01*
X165936481Y-90905985D01*
X166055015Y-91024519D01*
X166148147Y-91163900D01*
X166212297Y-91318772D01*
X166245000Y-91483184D01*
X166245000Y-91650816D01*
X166212297Y-91815228D01*
X166148147Y-91970100D01*
X166055015Y-92109481D01*
X165936481Y-92228015D01*
X165797100Y-92321147D01*
X165642228Y-92385297D01*
X165477816Y-92418000D01*
X165310184Y-92418000D01*
X165145772Y-92385297D01*
X164990900Y-92321147D01*
X164851519Y-92228015D01*
X164732985Y-92109481D01*
X164639853Y-91970100D01*
X164575703Y-91815228D01*
X164543000Y-91650816D01*
X164543000Y-91483184D01*
X164575703Y-91318772D01*
X164639853Y-91163900D01*
X164732985Y-91024519D01*
X164851519Y-90905985D01*
X164990900Y-90812853D01*
X165145772Y-90748703D01*
X165310184Y-90716000D01*
X165477816Y-90716000D01*
X165642228Y-90748703D01*
X165642228Y-90748703D01*
G37*
G36*
X161142228Y-90748703D02*
X161297100Y-90812853D01*
X161436481Y-90905985D01*
X161555015Y-91024519D01*
X161648147Y-91163900D01*
X161712297Y-91318772D01*
X161745000Y-91483184D01*
X161745000Y-91650816D01*
X161712297Y-91815228D01*
X161648147Y-91970100D01*
X161555015Y-92109481D01*
X161436481Y-92228015D01*
X161297100Y-92321147D01*
X161142228Y-92385297D01*
X160977816Y-92418000D01*
X160810184Y-92418000D01*
X160645772Y-92385297D01*
X160490900Y-92321147D01*
X160351519Y-92228015D01*
X160232985Y-92109481D01*
X160139853Y-91970100D01*
X160075703Y-91815228D01*
X160043000Y-91650816D01*
X160043000Y-91483184D01*
X160075703Y-91318772D01*
X160139853Y-91163900D01*
X160232985Y-91024519D01*
X160351519Y-90905985D01*
X160490900Y-90812853D01*
X160645772Y-90748703D01*
X160810184Y-90716000D01*
X160977816Y-90716000D01*
X161142228Y-90748703D01*
X161142228Y-90748703D01*
G37*
G36*
X140015527Y-87472736D02*
X140115410Y-87492604D01*
X140397674Y-87609521D01*
X140651705Y-87779259D01*
X140867741Y-87995295D01*
X141037479Y-88249326D01*
X141154396Y-88531590D01*
X141214000Y-88831240D01*
X141214000Y-89136760D01*
X141154396Y-89436410D01*
X141037479Y-89718674D01*
X140867741Y-89972705D01*
X140651705Y-90188741D01*
X140397674Y-90358479D01*
X140115410Y-90475396D01*
X140015527Y-90495264D01*
X139815762Y-90535000D01*
X139510238Y-90535000D01*
X139310473Y-90495264D01*
X139210590Y-90475396D01*
X138928326Y-90358479D01*
X138674295Y-90188741D01*
X138458259Y-89972705D01*
X138288521Y-89718674D01*
X138171604Y-89436410D01*
X138112000Y-89136760D01*
X138112000Y-88831240D01*
X138171604Y-88531590D01*
X138288521Y-88249326D01*
X138458259Y-87995295D01*
X138674295Y-87779259D01*
X138928326Y-87609521D01*
X139210590Y-87492604D01*
X139310473Y-87472736D01*
X139510238Y-87433000D01*
X139815762Y-87433000D01*
X140015527Y-87472736D01*
X140015527Y-87472736D01*
G37*
G36*
X153155527Y-87472736D02*
X153255410Y-87492604D01*
X153537674Y-87609521D01*
X153791705Y-87779259D01*
X154007741Y-87995295D01*
X154177479Y-88249326D01*
X154294396Y-88531590D01*
X154354000Y-88831240D01*
X154354000Y-89136760D01*
X154294396Y-89436410D01*
X154177479Y-89718674D01*
X154007741Y-89972705D01*
X153791705Y-90188741D01*
X153537674Y-90358479D01*
X153255410Y-90475396D01*
X153155527Y-90495264D01*
X152955762Y-90535000D01*
X152650238Y-90535000D01*
X152450473Y-90495264D01*
X152350590Y-90475396D01*
X152068326Y-90358479D01*
X151814295Y-90188741D01*
X151598259Y-89972705D01*
X151428521Y-89718674D01*
X151311604Y-89436410D01*
X151252000Y-89136760D01*
X151252000Y-88831240D01*
X151311604Y-88531590D01*
X151428521Y-88249326D01*
X151598259Y-87995295D01*
X151814295Y-87779259D01*
X152068326Y-87609521D01*
X152350590Y-87492604D01*
X152450473Y-87472736D01*
X152650238Y-87433000D01*
X152955762Y-87433000D01*
X153155527Y-87472736D01*
X153155527Y-87472736D01*
G37*
G36*
X158176527Y-87345736D02*
X158276410Y-87365604D01*
X158558674Y-87482521D01*
X158812705Y-87652259D01*
X159028741Y-87868295D01*
X159198479Y-88122326D01*
X159315396Y-88404590D01*
X159375000Y-88704240D01*
X159375000Y-89009760D01*
X159315396Y-89309410D01*
X159198479Y-89591674D01*
X159028741Y-89845705D01*
X158812705Y-90061741D01*
X158558674Y-90231479D01*
X158276410Y-90348396D01*
X158225719Y-90358479D01*
X157976762Y-90408000D01*
X157671238Y-90408000D01*
X157422281Y-90358479D01*
X157371590Y-90348396D01*
X157089326Y-90231479D01*
X156835295Y-90061741D01*
X156619259Y-89845705D01*
X156449521Y-89591674D01*
X156332604Y-89309410D01*
X156273000Y-89009760D01*
X156273000Y-88704240D01*
X156332604Y-88404590D01*
X156449521Y-88122326D01*
X156619259Y-87868295D01*
X156835295Y-87652259D01*
X157089326Y-87482521D01*
X157371590Y-87365604D01*
X157471473Y-87345736D01*
X157671238Y-87306000D01*
X157976762Y-87306000D01*
X158176527Y-87345736D01*
X158176527Y-87345736D01*
G37*
G36*
X171316527Y-87345736D02*
X171416410Y-87365604D01*
X171698674Y-87482521D01*
X171952705Y-87652259D01*
X172168741Y-87868295D01*
X172338479Y-88122326D01*
X172455396Y-88404590D01*
X172515000Y-88704240D01*
X172515000Y-89009760D01*
X172455396Y-89309410D01*
X172338479Y-89591674D01*
X172168741Y-89845705D01*
X171952705Y-90061741D01*
X171698674Y-90231479D01*
X171416410Y-90348396D01*
X171365719Y-90358479D01*
X171116762Y-90408000D01*
X170811238Y-90408000D01*
X170562281Y-90358479D01*
X170511590Y-90348396D01*
X170229326Y-90231479D01*
X169975295Y-90061741D01*
X169759259Y-89845705D01*
X169589521Y-89591674D01*
X169472604Y-89309410D01*
X169413000Y-89009760D01*
X169413000Y-88704240D01*
X169472604Y-88404590D01*
X169589521Y-88122326D01*
X169759259Y-87868295D01*
X169975295Y-87652259D01*
X170229326Y-87482521D01*
X170511590Y-87365604D01*
X170611473Y-87345736D01*
X170811238Y-87306000D01*
X171116762Y-87306000D01*
X171316527Y-87345736D01*
X171316527Y-87345736D01*
G37*
G36*
X127373721Y-84687174D02*
X127473995Y-84728709D01*
X127564245Y-84789012D01*
X127640988Y-84865755D01*
X127701291Y-84956005D01*
X127742826Y-85056279D01*
X127764000Y-85162730D01*
X127764000Y-85271270D01*
X127742826Y-85377721D01*
X127701291Y-85477995D01*
X127640988Y-85568245D01*
X127564245Y-85644988D01*
X127473995Y-85705291D01*
X127373721Y-85746826D01*
X127267270Y-85768000D01*
X127158730Y-85768000D01*
X127052279Y-85746826D01*
X126952005Y-85705291D01*
X126861755Y-85644988D01*
X126785012Y-85568245D01*
X126724709Y-85477995D01*
X126683174Y-85377721D01*
X126662000Y-85271270D01*
X126662000Y-85162730D01*
X126683174Y-85056279D01*
X126724709Y-84956005D01*
X126785012Y-84865755D01*
X126861755Y-84789012D01*
X126952005Y-84728709D01*
X127052279Y-84687174D01*
X127158730Y-84666000D01*
X127267270Y-84666000D01*
X127373721Y-84687174D01*
X127373721Y-84687174D01*
G37*
G36*
X131773721Y-84687174D02*
X131873995Y-84728709D01*
X131964245Y-84789012D01*
X132040988Y-84865755D01*
X132101291Y-84956005D01*
X132142826Y-85056279D01*
X132164000Y-85162730D01*
X132164000Y-85271270D01*
X132142826Y-85377721D01*
X132101291Y-85477995D01*
X132040988Y-85568245D01*
X131964245Y-85644988D01*
X131873995Y-85705291D01*
X131773721Y-85746826D01*
X131667270Y-85768000D01*
X131558730Y-85768000D01*
X131452279Y-85746826D01*
X131352005Y-85705291D01*
X131261755Y-85644988D01*
X131185012Y-85568245D01*
X131124709Y-85477995D01*
X131083174Y-85377721D01*
X131062000Y-85271270D01*
X131062000Y-85162730D01*
X131083174Y-85056279D01*
X131124709Y-84956005D01*
X131185012Y-84865755D01*
X131261755Y-84789012D01*
X131352005Y-84728709D01*
X131452279Y-84687174D01*
X131558730Y-84666000D01*
X131667270Y-84666000D01*
X131773721Y-84687174D01*
X131773721Y-84687174D01*
G37*
M02*
